<?xml version="1.0" encoding="UTF-8"?>
<svg version="1.1" xmlns="http://www.w3.org/2000/svg" width="414" height="414">
<svg width="414" height="414">
  <circle cx="207" cy="207" r="207" fill="white"/>
</svg>
<path d="M0 0 C0.33 0 0.66 0 1 0 C0.93425781 1.06927734 0.93425781 1.06927734 0.8671875 2.16015625 C0.87579019 5.35605631 1.07414911 7.93182149 2 11 C4.34647694 13.22723673 6.77784656 14.72907904 9.54296875 16.3984375 C13.31371744 18.8563182 14.40213258 20.78744044 16 25 C16.61898927 29.28923155 16.69747935 32.70015213 14.625 36.5625 C13 38 13 38 11 38 C11 39.65 11 41.3 11 43 C12.32 43 13.64 43 15 43 C15.02694851 44.95825873 15.04637218 46.91662226 15.0625 48.875 C15.07410156 49.96554688 15.08570313 51.05609375 15.09765625 52.1796875 C15 55 15 55 14 57 C13.34 57 12.68 57 12 57 C12 69.21 12 81.42 12 94 C13.98 94 15.96 94 18 94 C18.05384521 96.29141286 18.09272087 98.58318188 18.125 100.875 C18.14820313 102.15117187 18.17140625 103.42734375 18.1953125 104.7421875 C18 108 18 108 16 110 C15.6706462 111.9368613 15.6706462 111.9368613 15.68115234 114.17431641 C15.66128265 115.03505768 15.64141296 115.89579895 15.62094116 116.78262329 C15.60938995 117.71287323 15.59783875 118.64312317 15.5859375 119.6015625 C15.55688828 121.02896255 15.55688828 121.02896255 15.5272522 122.48519897 C15.46735868 125.53170747 15.42103205 128.57825354 15.375 131.625 C15.33682921 133.6875167 15.29777802 135.7500173 15.2578125 137.8125 C15.16164914 142.87486966 15.07765437 147.93731395 15 153 C17.31 153 19.62 153 22 153 C22.0809723 155.43816585 22.14046972 157.87364384 22.1875 160.3125 C22.21263672 161.00279297 22.23777344 161.69308594 22.26367188 162.40429688 C22.29296875 164.42578125 22.29296875 164.42578125 22 168 C21.50951172 168.43634766 21.01902344 168.87269531 20.51367188 169.32226562 C18.22538269 171.85857583 18.56433688 174.0563099 18.48828125 177.41796875 C18.45283203 178.67158203 18.41738281 179.92519531 18.38085938 181.21679688 C18.34702148 183.18229492 18.34702148 183.18229492 18.3125 185.1875 C18.27932334 186.52282013 18.24483334 187.85810832 18.20898438 189.19335938 C18.12637943 192.46215504 18.05726771 195.73067812 18 199 C2.44079503 203.26034899 -13.08748276 206.74875428 -29 209.375 C-29.76018433 209.50183167 -30.52036865 209.62866333 -31.30358887 209.75933838 C-40.17716381 211.22899275 -49.01443075 212.439484 -58 213 C-57.979375 212.14277344 -57.95875 211.28554688 -57.9375 210.40234375 C-57.92713692 203.54915029 -57.92713692 203.54915029 -60.84765625 197.578125 C-62.82843126 195.88730471 -64.79421587 194.38175543 -67 193 C-71.04620522 194.89800671 -74.051728 196.88372607 -76 201 C-76.72382095 205.71008122 -76.86465182 210.21769781 -77 215 C-81.95 214.67 -86.9 214.34 -92 214 C-91.95617187 211.62683594 -91.91234375 209.25367188 -91.8671875 206.80859375 C-91.85878864 204.49155853 -91.86754899 202.17517265 -91.87792969 199.8581543 C-91.87599158 198.25679537 -91.85640985 196.65535133 -91.81835938 195.05444336 C-91.37993532 185.6168486 -91.37993532 185.6168486 -95.12597656 177.31298828 C-99.91573037 173.73098686 -99.91573037 173.73098686 -105.68310547 173.31811523 C-106.44768066 173.54313721 -107.21225586 173.76815918 -108 174 C-108.763125 174.185625 -109.52625 174.37125 -110.3125 174.5625 C-110.869375 174.706875 -111.42625 174.85125 -112 175 C-112 175.66 -112 176.32 -112 177 C-113.98 177.99 -113.98 177.99 -116 179 C-116.33 190.22 -116.66 201.44 -117 213 C-128 212 -128 212 -133 211 C-133.01417969 210.26394531 -133.02835938 209.52789062 -133.04296875 208.76953125 C-133.30316991 202.40552041 -133.30316991 202.40552041 -136.3125 196.9375 C-138.51079358 195.3526837 -140.49604693 194.02012903 -143 193 C-143.40992188 193.433125 -143.81984375 193.86625 -144.2421875 194.3125 C-144.78101563 194.869375 -145.31984375 195.42625 -145.875 196 C-146.40867188 196.556875 -146.94234375 197.11375 -147.4921875 197.6875 C-149 199 -149 199 -151 199 C-151 201.31 -151 203.62 -151 206 C-156.62213955 205.39288482 -161.96433371 204.40782283 -167.4375 203 C-168.51547852 202.73316406 -168.51547852 202.73316406 -169.61523438 202.4609375 C-174.86850111 201.13149889 -174.86850111 201.13149889 -176 200 C-176.12610274 196.95595627 -176.18871062 193.9358841 -176.203125 190.890625 C-176.20882507 189.97166443 -176.21452515 189.05270386 -176.22039795 188.105896 C-176.22986535 186.15557004 -176.2363888 184.20522796 -176.24023438 182.25488281 C-176.24991418 179.27640594 -176.28091033 176.29862646 -176.3125 173.3203125 C-176.31903237 171.42708744 -176.32428192 169.53385743 -176.328125 167.640625 C-176.3404718 166.75086975 -176.3528186 165.8611145 -176.36553955 164.94439697 C-176.34434931 159.03260318 -175.36341247 155.74155846 -171.4375 151.1875 C-170 150 -170 150 -168 150 C-168.03480469 149.33613281 -168.06960937 148.67226562 -168.10546875 147.98828125 C-168.38009859 139.03011755 -168.38009859 139.03011755 -165 135 C-162.18175808 133.59087904 -159.82748718 133.88816447 -156.6796875 133.90234375 C-155.42285156 133.90556641 -154.16601562 133.90878906 -152.87109375 133.91210938 C-151.55238281 133.92048828 -150.23367187 133.92886719 -148.875 133.9375 C-147.53515789 133.94251511 -146.195314 133.94707799 -144.85546875 133.95117188 C-141.57026794 133.96298914 -138.28515603 133.97946383 -135 134 C-135 131.69 -135 129.38 -135 127 C-135.721875 126.773125 -136.44375 126.54625 -137.1875 126.3125 C-142.87667392 123.65755217 -145.9506919 119.32701898 -148.2734375 113.65234375 C-151.14485811 103.17011473 -148.6149391 92.78376012 -143.75 83.375 C-135.6898025 69.89420184 -122.41774408 60.72759696 -108 55 C-108 49.06 -108 43.12 -108 37 C-109.65 36.67 -111.3 36.34 -113 36 C-114.765625 34.4765625 -114.765625 34.4765625 -116.25 32.625 C-116.75015625 32.01914063 -117.2503125 31.41328125 -117.765625 30.7890625 C-120.81225636 26.37337527 -120.68250754 21.14155684 -120 16 C-118.76312588 12.96223716 -117.31806858 10.33636912 -115 8 C-112.828125 7.28515625 -112.828125 7.28515625 -111 7 C-111.165 7.495 -111.33 7.99 -111.5 8.5 C-112.75840694 14.7920347 -112.5703445 19.58292559 -109 25 C-104.23056253 29.3041265 -101.74615987 30.12496235 -95.375 30.0625 C-93.59222656 30.04896484 -93.59222656 30.04896484 -91.7734375 30.03515625 C-90.40058594 30.01775391 -90.40058594 30.01775391 -89 30 C-94.10729614 36.71244635 -94.10729614 36.71244635 -99 38 C-99.99 38 -100.98 38 -102 38 C-101.505 46.415 -101.505 46.415 -101 55 C-99.246875 55.825 -97.49375 56.65 -95.6875 57.5 C-81.63440193 64.55137783 -67.82873479 75.15993887 -62.1875 90.375 C-59.33695384 100.13133358 -58.91635435 110.1630993 -63.75 119.3125 C-66.31149334 122.37206149 -68.79143202 124.62844975 -72 127 C-72.66 127 -73.32 127 -74 127 C-74 129.31 -74 131.62 -74 134 C-73.20303711 133.98952637 -72.40607422 133.97905273 -71.58496094 133.96826172 C-67.97333938 133.92668228 -64.36176821 133.90066739 -60.75 133.875 C-59.49574219 133.85824219 -58.24148438 133.84148437 -56.94921875 133.82421875 C-55.74394531 133.81777344 -54.53867187 133.81132812 -53.296875 133.8046875 C-51.63156738 133.78897705 -51.63156738 133.78897705 -49.93261719 133.77294922 C-47.03068153 133.99762456 -45.41448087 134.42069489 -43 136 C-40.98180789 138.97282902 -40.78988616 141.46498313 -40.6875 145 C-40.39187753 149.20906216 -40.39187753 149.20906216 -37.5625 152.375 C-36.716875 152.91125 -35.87125 153.4475 -35 154 C-33.19981423 156.86919439 -32.75319106 159.04247942 -32.77294922 162.40136719 C-32.77317581 163.6922525 -32.77317581 163.6922525 -32.77340698 165.00921631 C-32.78372955 165.92914368 -32.79405212 166.84907104 -32.8046875 167.796875 C-32.8075174 168.74564514 -32.81034729 169.69441528 -32.81326294 170.67193604 C-32.82444552 173.69808639 -32.8495467 176.7239393 -32.875 179.75 C-32.88503228 181.80338114 -32.8941577 183.85676692 -32.90234375 185.91015625 C-32.92437859 190.94021854 -32.95889538 195.97005886 -33 201 C-28.05 201 -23.1 201 -18 201 C-18.07392857 196.7631283 -18.15667396 192.52839895 -18.26245117 188.29248047 C-18.29573178 186.85118658 -18.32375404 185.40976137 -18.34643555 183.96826172 C-18.3799262 181.89754203 -18.432233 179.82802907 -18.48828125 177.7578125 C-18.51446533 176.5114502 -18.54064941 175.26508789 -18.56762695 173.98095703 C-18.71031006 172.99724121 -18.85299316 172.01352539 -19 171 C-19.99 170.34 -20.98 169.68 -22 169 C-22.22107787 166.2114711 -22.28107535 163.65346819 -22.1875 160.875 C-22.17396484 160.12089844 -22.16042969 159.36679688 -22.14648438 158.58984375 C-22.11109985 156.72625873 -22.05729167 154.86304022 -22 153 C-19.69 153 -17.38 153 -15 153 C-15.09337381 146.91248312 -15.19943093 140.8253716 -15.31738281 134.73828125 C-15.35572685 132.66640319 -15.39057005 130.59445731 -15.421875 128.52246094 C-15.46740809 125.54858113 -15.52542118 122.57517038 -15.5859375 119.6015625 C-15.60326431 118.20618759 -15.60326431 118.20618759 -15.62094116 116.78262329 C-15.6507457 115.49151138 -15.6507457 115.49151138 -15.68115234 114.17431641 C-15.70113785 113.03514267 -15.70113785 113.03514267 -15.7215271 111.87295532 C-15.84617052 109.7568774 -15.84617052 109.7568774 -18 108 C-18.1953125 104.7421875 -18.1953125 104.7421875 -18.125 100.875 C-18.10695313 99.59367187 -18.08890625 98.31234375 -18.0703125 96.9921875 C-18.04710937 96.00476563 -18.02390625 95.01734375 -18 94 C-16.02 94 -14.04 94 -12 94 C-12.09340698 88.76693114 -12.19947109 83.534332 -12.31738281 78.30175781 C-12.35571565 76.52090527 -12.39056089 74.73997416 -12.421875 72.95898438 C-12.46743271 70.40205766 -12.52544107 67.8456739 -12.5859375 65.2890625 C-12.60326431 64.09055161 -12.60326431 64.09055161 -12.62094116 62.86782837 C-12.57258944 58.46542788 -12.57258944 58.46542788 -15 55 C-15.1953125 52.3984375 -15.1953125 52.3984375 -15.125 49.375 C-15.10695313 48.37210938 -15.08890625 47.36921875 -15.0703125 46.3359375 C-15.04710937 45.56507812 -15.02390625 44.79421875 -15 44 C-13.68 43.67 -12.36 43.34 -11 43 C-11.35698198 39.78716214 -11.5419687 38.38863262 -14.0625 36.25 C-16.64274814 33.2535828 -16.64080106 31.24016706 -16.4375 27.37109375 C-15.6636465 23.17708417 -13.90442822 20.10381688 -11 17 C-9.44360207 15.99851475 -7.85833657 15.04075144 -6.25 14.125 C-3.35895591 12.39707464 -2.21223456 11.70925324 -1.234375 8.44140625 C-0.9630657 5.71416557 -0.9630657 5.71416557 -1 3.07421875 C-1 1 -1 1 0 0 Z " fill="#000000" transform="translate(318,80)"/>
<path d="M0 0 C-8.10577125 8.5066061 -16.5944214 15.96536446 -26 23 C-26.94875 23.72058594 -27.8975 24.44117188 -28.875 25.18359375 C-80.84665 63.93571069 -149.24931914 77.96328164 -212.92578125 68.9765625 C-243.25186427 64.26751312 -271.49762646 54.90083964 -299.4375 42.25 C-323.98367157 31.32892259 -349.72807255 24.29123469 -376 33 C-378.00746554 33.98492747 -380.00942717 34.98136376 -382 36 C-382.66 36 -383.32 36 -384 36 C-379.7103838 26.34836356 -370.57129536 20.34551374 -361.1875 16.1875 C-350.08221096 12.02916101 -339.06513346 10.46034952 -327.25 10.5625 C-326.00138184 10.56934814 -324.75276367 10.57619629 -323.46630859 10.58325195 C-310.74377242 10.79783927 -298.46817303 12.56525416 -286 15 C-284.65518555 15.25692627 -284.65518555 15.25692627 -283.28320312 15.51904297 C-270.58750651 17.99028833 -258.07349079 21.22152022 -245.5385437 24.38937378 C-228.25295179 28.81334106 -228.25295179 28.81334106 -210.8125 32.5625 C-210.07435059 32.70631104 -209.33620117 32.85012207 -208.57568359 32.99829102 C-196.41110454 35.18365386 -184.0098695 35.240555 -171.6875 35.25 C-170.4860434 35.25101212 -170.4860434 35.25101212 -169.26031494 35.25204468 C-143.45417296 35.21793908 -118.26007206 32.35900503 -93 27 C-91.93652344 26.77973145 -90.87304688 26.55946289 -89.77734375 26.33251953 C-63.13806031 20.76108981 -37.1236095 12.46578373 -11.86328125 2.35546875 C-10.10564453 1.65357422 -10.10564453 1.65357422 -8.3125 0.9375 C-7.33925781 0.53402344 -6.36601562 0.13054687 -5.36328125 -0.28515625 C-3 -1 -3 -1 0 0 Z " fill="#000000" transform="translate(399,264)"/>
<path d="M0 0 C0.33 0 0.66 0 1 0 C1.33 4.29 1.66 8.58 2 13 C3.65 13.66 5.3 14.32 7 15 C11.31922285 18.08960626 16.0888169 21.53290138 17 27 C16.89197218 31.68674547 16.63669767 35.04495349 14 39 C13.34 39 12.68 39 12 39 C12 40.65 12 42.3 12 44 C12.99 44 13.98 44 15 44 C15.02685938 46.14576637 15.04633088 48.29162645 15.0625 50.4375 C15.07410156 51.63246094 15.08570313 52.82742187 15.09765625 54.05859375 C15 57 15 57 14 58 C13.83989519 60.73701178 13.74053172 63.4516759 13.68359375 66.19140625 C13.66281265 67.01124496 13.64203156 67.83108368 13.62062073 68.67576599 C13.55503506 71.30458901 13.49619874 73.93351504 13.4375 76.5625 C13.39432333 78.34050561 13.35070933 80.11850065 13.30664062 81.89648438 C13.19934457 86.26421634 13.09810296 90.63205227 13 95 C14.98 95 16.96 95 19 95 C19.08126087 97.08268593 19.13930839 99.16628658 19.1875 101.25 C19.23970703 102.99023438 19.23970703 102.99023438 19.29296875 104.765625 C19 108 19 108 17.51367188 109.60351562 C15.12997128 113.37745193 15.51942745 117.20077128 15.48828125 121.578125 C15.47033005 122.5046991 15.45237885 123.43127319 15.43388367 124.38592529 C15.37977299 127.3405708 15.34588243 130.29505469 15.3125 133.25 C15.2793276 135.25523083 15.24483802 137.26044032 15.20898438 139.265625 C15.12404598 144.17696674 15.05723827 149.08826048 15 154 C17.64 154 20.28 154 23 154 C23.0809723 156.43816585 23.14046972 158.87364384 23.1875 161.3125 C23.21263672 162.00279297 23.23777344 162.69308594 23.26367188 163.40429688 C23.29296875 165.42578125 23.29296875 165.42578125 23 169 C22.50951172 169.44988281 22.01902344 169.89976562 21.51367188 170.36328125 C19.32112836 172.73405733 19.5691296 174.57629383 19.48828125 177.76171875 C19.45283203 178.87998047 19.41738281 179.99824219 19.38085938 181.15039062 C19.35830078 182.31763672 19.33574219 183.48488281 19.3125 184.6875 C19.27833984 185.86634766 19.24417969 187.04519531 19.20898438 188.25976562 C19.12642075 191.17308225 19.05729678 194.08609466 19 197 C16.26212717 198.36893641 14.87624204 197.70345691 11.90625 197.0390625 C10.875 196.81476563 9.84375 196.59046875 8.78125 196.359375 C7.15703125 195.99585938 7.15703125 195.99585938 5.5 195.625 C-1.99654849 193.9529757 -9.33102387 192.55482257 -17 192 C-17.02578125 190.68644531 -17.0515625 189.37289062 -17.078125 188.01953125 C-17.13441829 186.2838215 -17.19176535 184.5481457 -17.25 182.8125 C-17.26417969 181.94818359 -17.27835937 181.08386719 -17.29296875 180.19335938 C-17.5060455 174.63205624 -18.31993606 172.3067679 -22 168 C-22.42578125 164.703125 -22.42578125 164.703125 -22.3125 161.25 C-22.28800781 160.10015625 -22.26351562 158.9503125 -22.23828125 157.765625 C-22 155 -22 155 -21 154 C-18.66702567 153.95907063 -16.33294775 153.95758277 -14 154 C-14.09337866 148.05489199 -14.19943682 142.11019881 -14.31738281 136.16552734 C-14.35572521 134.14215334 -14.39056871 132.11870994 -14.421875 130.09521484 C-14.46741169 127.19082797 -14.52542409 124.28692106 -14.5859375 121.3828125 C-14.59748871 120.47443634 -14.60903992 119.56606018 -14.62094116 118.63015747 C-14.64081085 117.78943695 -14.66068054 116.94871643 -14.68115234 116.08251953 C-14.69447601 115.34083527 -14.70779968 114.599151 -14.7215271 113.83499146 C-14.85199729 111.7526636 -14.85199729 111.7526636 -17 110 C-17.14497985 107.41935871 -17.18677545 104.95056116 -17.125 102.375 C-17.11597656 101.66859375 -17.10695313 100.9621875 -17.09765625 100.234375 C-17.07407603 98.48943902 -17.03820461 96.74467705 -17 95 C-15.02 95 -13.04 95 -11 95 C-11.09353106 89.92765116 -11.19962375 84.85577987 -11.31738281 79.78393555 C-11.35567345 78.05842292 -11.39052621 76.33283044 -11.421875 74.60717773 C-11.46752404 72.12715105 -11.52551781 69.64767409 -11.5859375 67.16796875 C-11.59748871 66.39599655 -11.60903992 65.62402435 -11.62094116 64.82865906 C-11.72521273 61.04753326 -11.8534589 59.21981165 -14 56 C-14.1953125 53.08203125 -14.1953125 53.08203125 -14.125 49.8125 C-14.10695313 48.72582031 -14.08890625 47.63914063 -14.0703125 46.51953125 C-14.04710938 45.68808594 -14.02390625 44.85664062 -14 44 C-13.01 44 -12.02 44 -11 44 C-11.94392703 40.87777981 -12.75327599 38.33810328 -14.6875 35.6875 C-16.67943941 31.60876693 -16.40909251 28.27709392 -15 24 C-11.96127174 19.31190854 -8.13209773 15.34610182 -3 13 C-2.34 13 -1.68 13 -1 13 C-0.67 8.71 -0.34 4.42 0 0 Z " fill="#000000" transform="translate(108,79)"/>
<path d="M0 0 C0.66 0.33 1.32 0.66 2 1 C2 2.32 2 3.64 2 5 C3.98 5 5.96 5 8 5 C7.505 5.8353125 7.505 5.8353125 7 6.6875 C5.8690399 9.30284522 5.84337026 11.1806646 6 14 C3 14 3 14 0 13 C-0.66 13.66 -1.32 14.32 -2 15 C-2.99 15 -3.98 15 -5 15 C-4.67 13.02 -4.34 11.04 -4 9 C-4.99 8.34 -5.98 7.68 -7 7 C-7 6.34 -7 5.68 -7 5 C-5.35 5 -3.7 5 -2 5 C-1.34 3.35 -0.68 1.7 0 0 Z " fill="#000000" transform="translate(215,90)"/>
</svg>
