<?xml version="1.0" encoding="UTF-8"?>
<svg version="1.1" xmlns="http://www.w3.org/2000/svg" width="512" height="512">
<path d="M0 0 C2.77445881 2.20695588 4.54772166 3.73483361 5.0500946 7.34263611 C5.07868844 13.61631157 4.00762066 18.60766569 1.76953125 24.44140625 C1.44979843 25.3141217 1.13006561 26.18683716 0.80064392 27.08599854 C-0.26368674 29.97981319 -1.35061084 32.86459053 -2.4375 35.75 C-3.20628552 37.82780261 -3.97349949 39.90618726 -4.73925781 41.98510742 C-6.37717473 46.42370508 -8.02444775 50.85866687 -9.67919922 55.29101562 C-12.24318904 62.16127622 -14.78298736 69.04029094 -17.31640625 75.921875 C-17.73964676 77.07141663 -18.16288727 78.22095825 -18.59895325 79.40533447 C-19.4625857 81.75111676 -20.32615649 84.09692175 -21.18966675 86.44274902 C-22.51219301 90.03310121 -23.8369932 93.62260718 -25.16235352 97.21191406 C-31.46398262 114.28494827 -37.6904112 131.3842471 -43.875 148.5 C-50.51135262 166.86534515 -57.1676778 185.22294119 -63.875 203.5625 C-64.45776703 205.15597763 -64.45776703 205.15597763 -65.05230713 206.78164673 C-67.00342241 212.11601639 -68.95518103 217.45015038 -70.90722656 222.78417969 C-74.4618019 232.49813918 -78.01060349 242.21420837 -81.55993652 251.93008423 C-82.74973469 255.18677379 -83.9397688 258.44337702 -85.12988281 261.69995117 C-88.6755266 271.40229311 -92.22039505 281.10491459 -95.76112366 290.80905151 C-102.66903537 309.74147242 -109.58004842 328.67262975 -116.55078125 347.58203125 C-116.99538696 348.78813049 -117.43999268 349.99422974 -117.89807129 351.23687744 C-120.12634807 357.27997133 -122.35667682 363.3223006 -124.58935547 369.36376953 C-128.75890173 380.65439752 -132.89939626 391.95377734 -136.95703125 403.28515625 C-137.69241598 405.33269961 -138.4278477 407.38022609 -139.16333008 409.42773438 C-140.51605973 413.19495383 -141.85666604 416.96617897 -143.19018555 420.74023438 C-143.79301577 422.42203323 -144.39626196 424.10368307 -145 425.78515625 C-145.25743484 426.52516373 -145.51486969 427.2651712 -145.78010559 428.02760315 C-150.04047392 439.79115742 -156.87556521 448.71458355 -168.25 454.1875 C-173.14694387 455.86726563 -177.45579025 456.48374462 -182.625 456.5 C-183.84960938 456.51675781 -185.07421875 456.53351563 -186.3359375 456.55078125 C-194.22408208 455.81864807 -200.27957677 452.97638873 -206.625 448.375 C-207.29998535 447.89853027 -207.9749707 447.42206055 -208.67041016 446.93115234 C-215.6691207 441.96170093 -222.56307111 436.84370374 -229.45703125 431.73046875 C-234.05051329 428.32695979 -238.67462856 424.96768753 -243.3125 421.625 C-244.05169678 421.09205322 -244.79089355 420.55910645 -245.55249023 420.01000977 C-247.78445516 418.40175734 -250.01709565 416.79444781 -252.25 415.1875 C-262.2563257 407.98627656 -272.22939506 400.74494101 -282.14428711 393.41821289 C-287.48835616 389.47342959 -292.85901545 385.56787592 -298.25 381.6875 C-304.44654378 377.22729073 -310.60978557 372.72493787 -316.75 368.1875 C-323.22550088 363.40324128 -329.72320977 358.65158655 -336.25 353.9375 C-337.00990234 353.38835937 -337.76980469 352.83921875 -338.55273438 352.2734375 C-341.42783777 350.20062737 -344.30031877 348.15395415 -347.25 346.1875 C-347.25 345.5275 -347.25 344.8675 -347.25 344.1875 C-345.97900391 342.93774414 -345.97900391 342.93774414 -344.1015625 341.41015625 C-338.26429553 336.44093665 -332.93551975 330.98433545 -327.53692627 325.54959106 C-325.58743245 323.5871836 -323.63470075 321.62804846 -321.68115234 319.66967773 C-317.53460091 315.51177025 -313.39200367 311.34993723 -309.25 307.1875 C-304.44533921 302.35913659 -299.63901607 297.53245224 -294.82843018 292.70999146 C-292.91657521 290.79171486 -291.00778794 288.87042257 -289.09912109 286.94897461 C-283.99537384 281.82393085 -278.90166506 276.79808874 -273.39306641 272.10571289 C-268.57860557 267.796392 -264.08910862 263.13225644 -259.53692627 258.54959106 C-257.58743245 256.5871836 -255.63470075 254.62804846 -253.68115234 252.66967773 C-249.53460091 248.51177025 -245.39200367 244.34993723 -241.25 240.1875 C-236.44533921 235.35913659 -231.63901607 230.53245224 -226.82843018 225.70999146 C-224.91657521 223.79171486 -223.00778794 221.87042257 -221.09912109 219.94897461 C-215.99537384 214.82393085 -210.90166506 209.79808874 -205.39306641 205.10571289 C-200.57860557 200.796392 -196.08910862 196.13225644 -191.53692627 191.54959106 C-189.58743245 189.5871836 -187.63470075 187.62804846 -185.68115234 185.66967773 C-181.53460091 181.51177025 -177.39200367 177.34993723 -173.25 173.1875 C-168.44533921 168.35913659 -163.63901607 163.53245224 -158.82843018 158.70999146 C-156.91657521 156.79171486 -155.00778794 154.87042257 -153.09912109 152.94897461 C-147.99537384 147.82393085 -142.90166506 142.79808874 -137.39306641 138.10571289 C-132.57860557 133.796392 -128.08910862 129.13225644 -123.53692627 124.54959106 C-121.58743245 122.5871836 -119.63470075 120.62804846 -117.68115234 118.66967773 C-113.53460091 114.51177025 -109.39200367 110.34993723 -105.25 106.1875 C-100.44533921 101.35913659 -95.63901607 96.53245224 -90.82843018 91.70999146 C-88.91657521 89.79171486 -87.00778794 87.87042257 -85.09912109 85.94897461 C-79.87942154 80.70748711 -74.6713529 75.5435026 -69.03491211 70.74533081 C-65.6903481 67.82627119 -62.59411159 64.6537579 -59.46875 61.50390625 C-58.42031921 60.45335304 -58.42031921 60.45335304 -57.35070801 59.38157654 C-55.14808461 57.17341542 -52.94898919 54.96177963 -50.75 52.75 C-49.24502492 51.24000186 -47.73981865 49.7302341 -46.234375 48.22070312 C-42.57024171 44.54562359 -38.9092652 40.86742644 -35.25 37.1875 C-36.51817953 38.13762572 -37.78621852 39.08793902 -39.05419922 40.03833008 C-39.7603537 40.56751541 -40.46650818 41.09670074 -41.19406128 41.641922 C-52.85649289 50.40930284 -64.3382731 59.42668018 -75.70727539 68.57055664 C-81.63877694 73.3405798 -87.62417453 78.02349848 -93.6875 82.625 C-100.06644958 87.46743016 -106.31423312 92.44602791 -112.50927734 97.52099609 C-116.56005242 100.83325979 -120.65118768 104.07783111 -124.8125 107.25 C-129.42869514 110.77034562 -133.97946911 114.35783813 -138.5 118 C-143.83289974 122.29422048 -149.23281081 126.4867456 -154.6875 130.625 C-161.06653178 135.4673178 -167.31423739 140.44603141 -173.50927734 145.52099609 C-177.56005242 148.83325979 -181.65118768 152.07783111 -185.8125 155.25 C-190.42869514 158.77034562 -194.97946911 162.35783813 -199.5 166 C-204.83289974 170.29422048 -210.23281081 174.4867456 -215.6875 178.625 C-222.06571961 183.46670128 -228.31223845 188.44522278 -234.50708008 193.51879883 C-239.61275578 197.6928327 -244.80568926 201.73248441 -250.046875 205.734375 C-257.6860476 211.56946256 -265.21688931 217.54617885 -272.70727539 223.57055664 C-278.63877694 228.3405798 -284.62417453 233.02349848 -290.6875 237.625 C-297.06644958 242.46743016 -303.31423312 247.44602791 -309.50927734 252.52099609 C-313.56005242 255.83325979 -317.65118768 259.07783111 -321.8125 262.25 C-326.42869514 265.77034562 -330.97946911 269.35783813 -335.5 273 C-340.83289688 277.29421818 -346.23273992 281.48684184 -351.6875 285.625 C-357.4003207 289.96018729 -363.0149756 294.392805 -368.5625 298.9375 C-371.12187891 301.02469654 -373.68429817 303.10808107 -376.25 305.1875 C-377.13921143 305.90921387 -377.13921143 305.90921387 -378.04638672 306.64550781 C-379.68654571 307.96596303 -381.33995536 309.26718371 -383 310.5625 C-384.38445312 311.65691406 -384.38445312 311.65691406 -385.796875 312.7734375 C-388.25 314.1875 -388.25 314.1875 -390.17456055 313.92895508 C-392.41728724 313.12773628 -393.99355032 312.14792865 -395.91015625 310.73828125 C-396.96203125 309.97161133 -396.96203125 309.97161133 -398.03515625 309.18945312 C-398.78667969 308.63193359 -399.53820312 308.07441406 -400.3125 307.5 C-401.10398437 306.92056641 -401.89546875 306.34113281 -402.7109375 305.74414062 C-405.22877987 303.89838374 -407.73987711 302.04373758 -410.25 300.1875 C-411.84224431 299.01404659 -413.43468861 297.8408645 -415.02734375 296.66796875 C-417.39862512 294.92088945 -419.76941362 293.17316202 -422.13867188 291.42333984 C-430.46213309 285.27942765 -438.85311396 279.23046267 -447.25 273.1875 C-458.17571729 265.32462067 -469.07206829 257.42542926 -479.88671875 249.41015625 C-482.52020783 247.45855783 -485.16407106 245.52525809 -487.83203125 243.62109375 C-496.0105284 237.70582852 -505.5350365 230.79363347 -507.25 220.1875 C-508.20485168 208.71719315 -507.47113074 199.16163249 -500.0625 189.875 C-493.11653732 181.76844608 -481.30033045 178.68536593 -471.625 175 C-470.0457653 174.39281024 -468.4667514 173.78504597 -466.88793945 173.17675781 C-462.58505385 171.52099818 -458.27893781 169.87379816 -453.97210693 168.22833252 C-449.34041578 166.45734597 -444.71145113 164.67925685 -440.08203125 162.90234375 C-430.15080301 159.09223927 -420.21592799 155.29170814 -410.28027344 151.49316406 C-400.53987637 147.76925234 -390.80103507 144.0412779 -381.0625 140.3125 C-380.09951996 139.9438382 -379.13653992 139.57517639 -378.14437866 139.19534302 C-361.58543006 132.85549145 -345.03647739 126.4898418 -328.48916626 120.11968994 C-310.43287459 113.16976935 -292.36141066 106.26017799 -274.28393555 99.36557007 C-257.59541988 93.00009758 -240.91801869 86.60644425 -224.25 80.1875 C-205.27338117 72.87950133 -186.28193948 65.6111976 -167.28173828 58.36474609 C-149.52927491 51.59344578 -131.79031114 44.78782399 -114.05996704 37.95883179 C-101.57131818 33.14919609 -89.07784824 28.35260424 -76.57421875 23.58203125 C-75.34776642 23.11409149 -74.12131409 22.64615173 -72.85769653 22.16403198 C-66.96635765 19.91681121 -61.07438973 17.67125446 -55.18164062 15.42773438 C-53.02075956 14.60436025 -50.8599508 13.78079635 -48.69921875 12.95703125 C-47.14399002 12.36427902 -47.14399002 12.36427902 -45.55734253 11.759552 C-37.17246131 8.5563806 -28.81344104 5.28883264 -20.47135925 1.9757843 C-19.13359184 1.44769417 -19.13359184 1.44769417 -17.76879883 0.90893555 C-16.98966629 0.59957565 -16.21053375 0.29021576 -15.40779114 -0.02851868 C-9.87444442 -2.03892664 -5.35811017 -2.98817683 0 0 Z " fill="#000000" transform="translate(507.25,18.8125)"/>
<path d="M0 0 C3.18727195 0.61225682 5.23416808 1.66797129 7.8359375 3.58984375 C8.92648438 4.38745117 8.92648438 4.38745117 10.0390625 5.20117188 C10.80992188 5.77416016 11.58078125 6.34714844 12.375 6.9375 C14.00756477 8.13445254 15.64037963 9.33106406 17.2734375 10.52734375 C18.0787793 11.12015137 18.88412109 11.71295898 19.71386719 12.32373047 C22.78874568 14.57833488 25.89124873 16.79246933 29 19 C34.28905567 22.76667053 39.55308662 26.56707719 44.8125 30.375 C50.68131272 34.62242887 56.57418406 38.83248411 62.5 43 C69.19778657 47.71042844 75.84807356 52.48316655 82.48046875 57.28515625 C86.97568814 60.53950779 91.48021617 63.77985976 96 67 C101.55563706 70.95986023 107.09349503 74.94400162 112.625 78.9375 C113.78128906 79.7718457 113.78128906 79.7718457 114.9609375 80.62304688 C115.68796875 81.14833984 116.415 81.67363281 117.1640625 82.21484375 C117.80811035 82.68011475 118.4521582 83.14538574 119.11572266 83.62475586 C121.09037904 85.06596335 123.04735191 86.52914954 125 88 C123.91327576 91.26017273 123.49069954 91.64280128 120.80761719 93.50488281 C120.13539124 93.97609558 119.46316528 94.44730835 118.77056885 94.93280029 C118.03674988 95.43450745 117.30293091 95.9362146 116.546875 96.453125 C115.78614685 96.9810968 115.0254187 97.5090686 114.24163818 98.05303955 C106.72762896 103.24342634 99.12078209 108.29419615 91.47802734 113.29248047 C89.23422008 114.76032283 86.99388205 116.23335015 84.75390625 117.70703125 C52.9855229 138.56675783 52.9855229 138.56675783 42 137 C34.00468116 135.13484009 28.35834357 130.97536281 24 124 C21.31889486 117.38530029 19.98983486 110.52616248 18.73168945 103.52929688 C18.52642639 102.41768188 18.32116333 101.30606689 18.10968018 100.1607666 C17.43800224 96.51453741 16.77554815 92.86669921 16.11328125 89.21875 C15.64728587 86.6780011 15.18074028 84.13735306 14.71366882 81.59680176 C13.73906999 76.28854259 12.76840269 70.9795903 11.80151367 65.66992188 C10.43627972 58.17278283 9.06254356 50.67722005 7.68711913 43.18194485 C5.74594659 32.6008216 3.80866042 22.01898117 1.88012695 11.43554688 C1.68847458 10.38729736 1.4968222 9.33904785 1.29936218 8.2590332 C1.12700043 7.31145142 0.95463867 6.36386963 0.77705383 5.38757324 C0.62608907 4.5595092 0.4751243 3.73144516 0.31958485 2.87828827 C0 1 0 1 0 0 Z " fill="#000000" transform="translate(92,358)"/>
</svg>
