<?xml version="1.0" encoding="UTF-8"?>
<svg version="1.1" xmlns="http://www.w3.org/2000/svg" width="256" height="257">
<path d="M0 0 C9.86598439 -0.30220066 19.730856 -0.53267914 29.60053825 -0.67355824 C34.184582 -0.74120407 38.76544411 -0.83280702 43.34765625 -0.98071289 C47.77648847 -1.12276092 52.2022777 -1.1998465 56.63321304 -1.23340416 C58.31683395 -1.25728986 60.00030158 -1.30394347 61.68261337 -1.37449074 C74.48688175 -1.88970856 74.48688175 -1.88970856 78.67822266 1.26191902 C82.13067064 4.76210699 84.54975772 8.76432123 87 13 C88.09486561 14.5843443 89.20066169 16.1613414 90.328125 17.72265625 C91.30567343 19.16684726 92.2796126 20.61348762 93.25 22.0625 C94.35713021 23.69725342 95.46523702 25.33134579 96.57421875 26.96484375 C97.13544434 27.79226074 97.69666992 28.61967773 98.27490234 29.47216797 C101.16963246 33.71389393 104.114095 37.920477 107.0625 42.125 C107.64870117 42.9610376 108.23490234 43.7970752 108.83886719 44.65844727 C113.0277855 50.62608589 117.22870248 56.58526062 121.44140625 62.53613281 C124.22976469 66.47823048 126.99957212 70.43247633 129.75390625 74.3984375 C130.70426758 75.76452148 130.70426758 75.76452148 131.67382812 77.15820312 C132.90816814 78.93376358 134.14004695 80.71103823 135.36914062 82.49023438 C135.92923828 83.29525391 136.48933594 84.10027344 137.06640625 84.9296875 C137.56084229 85.64366699 138.05527832 86.35764648 138.56469727 87.09326172 C139.92526442 88.90071698 141.35883081 90.44738639 143 92 C149.33111399 84.99414143 155.6240661 77.96369507 161.75 70.77734375 C167.32974973 64.23450898 172.96924131 57.77556298 178.77734375 51.43359375 C182.86049757 46.962935 186.81842379 42.38858111 190.74609375 37.78125 C196.32094676 31.24524653 201.95283639 24.79057547 207.7578125 18.45703125 C209.7600036 16.26299257 211.73316087 14.04913256 213.6875 11.8125 C214.20989258 11.22871582 214.73228516 10.64493164 215.27050781 10.04345703 C217.02398458 8.0472573 217.02398458 8.0472573 218.41748047 5.89526367 C220.86108135 2.4981298 222.63525547 0.31286493 226.81469727 -0.64526367 C230.05656507 -0.78661165 233.19904607 -0.69988084 236.4375 -0.5 C238.1071582 -0.44585938 238.1071582 -0.44585938 239.81054688 -0.390625 C242.54396097 -0.29677387 245.27015413 -0.16565759 248 0 C245.15093326 4.52737684 242.0025061 8.32764865 238.3125 12.1875 C234.5734727 16.16216362 230.97102575 20.17053073 227.5625 24.4375 C223.53553256 29.45841948 219.20785297 34.12421817 214.79931641 38.80615234 C210.76055464 43.11880851 207.01052798 47.59838771 203.31640625 52.2109375 C199.64013503 56.63734163 195.69573628 60.80801112 191.7734375 65.015625 C187.46894486 69.63353761 183.35687595 74.40761607 179.26171875 79.2109375 C178.23712698 80.41158449 177.21238289 81.61210151 176.1875 82.8125 C175.4147876 83.71850952 175.4147876 83.71850952 174.62646484 84.64282227 C170.63972952 89.2990047 166.54003767 93.82834462 162.3515625 98.3046875 C159.36603955 101.72663241 156.68226827 105.33821975 154 109 C154.70382813 109.99515625 155.40765625 110.9903125 156.1328125 112.015625 C163.52447776 122.47339668 170.87908853 132.95665938 178.21777344 143.45166016 C181.14376732 147.63543058 184.07195555 151.81766454 187 156 C190.52455566 161.03437511 194.04860531 166.0691005 197.5703125 171.10546875 C203.03176431 178.91438668 208.49959932 186.7184538 214 194.5 C218.30712952 200.59339742 222.5969983 206.69861631 226.875 212.8125 C227.45588379 213.64257568 228.03676758 214.47265137 228.63525391 215.32788086 C231.66561472 219.65953392 234.69335886 223.99299955 237.71875 228.328125 C238.93747151 230.07293657 240.15622102 231.81772858 241.375 233.5625 C241.95765625 234.39813477 242.5403125 235.23376953 243.140625 236.09472656 C246.90471548 241.47970692 250.75044609 246.78457909 254.7421875 252.00390625 C256 254 256 254 256 257 C246.20430149 257.46600393 236.41128333 257.81998637 226.60671043 258.03624344 C222.05182726 258.1401236 217.50458356 258.28055043 212.95410156 258.50878906 C183.66747749 259.93954703 183.66747749 259.93954703 176.04119873 255.13656616 C171.38262122 250.58828023 168.57385814 245.32988207 166.04681396 239.38214111 C164.72547318 236.37528382 162.97453162 233.87863462 160.9921875 231.26953125 C160.46753906 230.51929688 159.94289062 229.7690625 159.40234375 228.99609375 C154.61627328 222.15360426 149.81984347 215.31874591 145 208.5 C140.69286906 202.40660056 136.40339912 196.30110716 132.125 190.1875 C131.5484668 189.36467529 130.97193359 188.54185059 130.37792969 187.6940918 C127.26242024 183.24503026 124.15908974 178.78798091 121.0703125 174.3203125 C120.43077637 173.39839111 119.79124023 172.47646973 119.13232422 171.52661133 C117.89858338 169.74768825 116.66830942 167.96635463 115.44189453 166.18237305 C114.88872559 165.38613525 114.33555664 164.58989746 113.765625 163.76953125 C113.27868164 163.06417236 112.79173828 162.35881348 112.29003906 161.63208008 C111.07902201 159.86268765 111.07902201 159.86268765 109 159 C105.71022193 162.72995964 102.44096989 166.47652896 99.21484375 170.26171875 C94.48686901 175.80824975 89.74730532 181.32224437 84.8125 186.6875 C81.64169258 190.14015696 78.61964969 193.65530966 75.6875 197.3125 C71.61251555 202.36836567 67.24768006 207.08187223 62.79980469 211.80566406 C58.76084255 216.11845414 55.01067423 220.59820511 51.31640625 225.2109375 C47.64656475 229.62959995 43.70979812 233.79324566 39.79296875 237.9921875 C37.55018988 240.39779106 35.35002541 242.83410009 33.1875 245.3125 C32.68661865 245.87541748 32.1857373 246.43833496 31.66967773 247.01831055 C29.97110234 248.96538067 29.97110234 248.96538067 28.57714844 251.0925293 C26.15833181 254.42245411 24.38397625 256.67160517 20.27856445 257.64575195 C17.17081821 257.78642557 14.16660513 257.70038916 11.0625 257.5 C9.99708984 257.46390625 8.93167969 257.4278125 7.83398438 257.390625 C5.21888684 257.29680984 2.61136019 257.16573994 0 257 C1.17758349 253.73297667 2.29930764 251.32765901 4.72265625 248.8359375 C5.25632812 248.27712891 5.79 247.71832031 6.33984375 247.14257812 C6.90832031 246.55927734 7.47679687 245.97597656 8.0625 245.375 C12.04249976 241.19861867 15.90167715 237.01633073 19.5 232.5 C22.98562736 228.1429658 26.67793667 224.05878467 30.5 220 C35.12294958 215.09039702 39.46601179 210.05521457 43.68359375 204.7890625 C47.35986497 200.36265837 51.30426372 196.19198888 55.2265625 191.984375 C59.53105514 187.36646239 63.64312405 182.59238393 67.73828125 177.7890625 C73.31360379 171.25468012 78.94771944 164.80303461 84.74609375 158.46484375 C86.80189291 156.21664744 88.84920309 153.9627581 90.875 151.6875 C91.64457031 150.82705078 91.64457031 150.82705078 92.4296875 149.94921875 C94.47088028 147.41549935 96.22471931 144.72440261 98 142 C89.68140068 129.77931261 81.2710699 117.62712618 72.77490234 105.52929688 C70.39471814 102.13745253 68.02061167 98.74137368 65.64624023 95.34545898 C60.77963451 88.38597801 55.90182298 81.43472425 51 74.5 C43.69956312 64.17190025 36.45641484 53.80380377 29.20898438 43.43847656 C22.96637258 34.51120057 16.71917168 25.58735357 10.4375 16.6875 C9.72279541 15.67490112 9.72279541 15.67490112 8.99365234 14.6418457 C8.54070801 14.00077881 8.08776367 13.35971191 7.62109375 12.69921875 C7.18909668 12.0861084 6.75709961 11.47299805 6.31201172 10.84130859 C5.40287984 9.5654112 4.48175716 8.2980054 3.55126953 7.03759766 C0 2.20492936 0 2.20492936 0 0 Z M32 17 C36.17517161 23.67949996 40.46606326 30.21127409 45.125 36.5625 C46.26177143 38.12496167 47.39848861 39.68746282 48.53515625 41.25 C49.1089502 42.03632812 49.68274414 42.82265625 50.27392578 43.6328125 C53.04673139 47.43551734 55.80570737 51.24817685 58.5625 55.0625 C59.37001709 56.17927124 59.37001709 56.17927124 60.19384766 57.31860352 C64.33198905 63.05135522 68.4138574 68.82226217 72.48071289 74.60571289 C76.11460686 79.76590195 79.79678074 84.88938149 83.5 90 C88.21195436 96.50272086 92.86635191 103.04271791 97.48486328 109.61206055 C101.07395681 114.70904329 104.71423156 119.76681434 108.375 124.8125 C113.58542777 131.9971426 118.68980941 139.25087487 123.76464844 146.53173828 C128.19417512 152.87597153 132.70232196 159.15913413 137.24609375 165.421875 C140.86978554 170.42098265 144.44897885 175.449049 148 180.5 C152.65979058 187.12710408 157.38587241 193.70335685 162.14013672 200.26293945 C165.84161376 205.37695325 169.49580653 210.52199321 173.125 215.6875 C177.09263737 221.331298 181.10849948 226.93608255 185.1875 232.5 C185.65752441 233.14155029 186.12754883 233.78310059 186.61181641 234.4440918 C188.66860808 237.33648899 188.66860808 237.33648899 191 240 C193.44830426 240.08843793 195.86820599 240.11528752 198.31640625 240.09765625 C199.04746078 240.0962413 199.77851532 240.09482635 200.53172302 240.09336853 C202.87535632 240.08775408 205.21889539 240.07519922 207.5625 240.0625 C209.14778508 240.05748686 210.73307166 240.05292363 212.31835938 240.04882812 C216.2122761 240.03777997 220.10612205 240.02050572 224 240 C220.03205094 233.62454761 215.97710886 227.43345607 211.375 221.5 C206.88900294 215.62317284 202.63708424 209.62699576 198.5 203.5 C194.47761876 197.54711484 190.35658763 191.71299222 186 186 C181.04866775 179.50709201 176.42667874 172.8309284 171.85546875 166.06640625 C168.37054669 160.93467138 164.76119918 155.93223217 161 151 C156.04866775 144.50709201 151.42667874 137.8309284 146.85546875 131.06640625 C143.37054669 125.93467138 139.76119918 120.93223217 136 116 C131.04866775 109.50709201 126.42667874 102.8309284 121.85546875 96.06640625 C118.37054669 90.93467138 114.76119918 85.93223217 111 81 C106.04866775 74.50709201 101.42667874 67.8309284 96.85546875 61.06640625 C92.91908061 55.26986333 88.79220372 49.65781492 84.54150391 44.08935547 C79.86413411 37.91858052 75.50958914 31.54029219 71.1875 25.1171875 C70.41019531 23.96476562 70.41019531 23.96476562 69.6171875 22.7890625 C68.93052002 21.76353271 68.93052002 21.76353271 68.22998047 20.71728516 C66.97444712 18.86569608 66.97444712 18.86569608 65 17 C62.49079154 16.82504394 60.09375059 16.76830431 57.5859375 16.8046875 C56.49147812 16.80893234 56.49147812 16.80893234 55.37490845 16.81326294 C53.04143972 16.82446998 50.70835297 16.8495749 48.375 16.875 C46.79427637 16.88502915 45.21354673 16.89415511 43.6328125 16.90234375 C39.75506086 16.92441095 35.87759522 16.95894385 32 17 Z " fill="#000000" transform="translate(0,0)"/>
</svg>
